<!-- Generator: Adobe Illustrator 19.0.0, SVG Export Plug-In  -->
<svg version="1.1"
	 xmlns="http://www.w3.org/2000/svg" xmlns:xlink="http://www.w3.org/1999/xlink" xmlns:a="http://ns.adobe.com/AdobeSVGViewerExtensions/3.0/"
	 x="0px" y="0px" width="405.693px" height="53.188px" viewBox="0 0 405.693 53.188"
	 style="enable-background:new 0 0 405.693 53.188;" xml:space="preserve">
<style type="text/css">
	.st0{fill:#FFFFFF;}
</style>
<defs>
</defs>
<g id="XMLID_1_">
	<path class="st0" d="M25.406,17.107c-1.492-1.865-4.289-3.03-6.853-3.03c-5.408,0-8.764,3.869-8.764,9.23
		c0,5.641,3.683,9.137,8.764,9.137c3.124,0,6.107-1.585,7.458-3.823l7.925,2.051c-2.704,5.78-8.531,9.603-15.383,9.603
		c-9.37,0-16.921-7.132-16.921-16.968S9.184,6.339,18.553,6.339c6.433,0,11.934,3.45,14.824,8.67L25.406,17.107z"/>
	<path class="st0" d="M58.457,35.427h-15.01l-1.911,4.195h-8.717L48.201,6.992h5.5l15.383,32.631h-8.717L58.457,35.427z
		 M55.146,28.108l-3.729-8.251l-0.466-1.305l-0.466,1.305l-3.729,8.251H55.146z"/>
	<path class="st0" d="M95.842,6.992L82.883,25.638v13.985h-7.831V25.638L62.092,6.992h9.509l6.76,9.929l0.605,1.212l0.606-1.212
		l6.759-9.929H95.842z"/>
	<path class="st0" d="M123.019,32.304v7.319H99.012V6.992h23.728v7.318h-15.896v5.361h12.446v7.039h-12.446v5.594H123.019z"/>
	<path class="st0" d="M153.831,6.992v7.318h-9.929v25.312h-7.832V14.31h-9.79V6.992H153.831z"/>
	<path class="st0" d="M176.207,35.427h-15.01l-1.912,4.195h-8.717l15.383-32.631h5.501l15.383,32.631h-8.717L176.207,35.427z
		 M172.897,28.108l-3.729-8.251l-0.466-1.305l-0.467,1.305l-3.729,8.251H172.897z"/>
	<path class="st0" d="M218.348,6.992v32.631h-7.365l-13.519-17.434l-0.652-1.212l0.093,1.212v17.434h-7.832V6.992h7.365
		l13.519,17.201l0.652,1.212l-0.093-1.212V6.992H218.348z"/>
	<path class="st0" d="M240.07,6.339c9.37,0,16.968,7.132,16.968,16.968s-7.598,16.968-16.968,16.968
		c-9.37,0-16.921-7.132-16.921-16.968S230.701,6.339,240.07,6.339z M240.07,32.537c5.314,0,8.811-3.776,8.811-9.23
		c0-5.5-3.496-9.23-8.811-9.23c-5.268,0-8.764,3.729-8.764,9.23C231.307,28.761,234.803,32.537,240.07,32.537z"/>
	<path class="st0" d="M283.655,9.556v12.306h14.498v2.518h-14.498v15.243h-2.75V6.992h20.79v2.564H283.655z"/>
	<path class="st0" d="M307.895,39.623V6.992h2.75v32.631H307.895z"/>
	<path class="st0" d="M339.967,37.059v2.564h-20.791V6.992h2.75v30.067H339.967z"/>
	<path class="st0" d="M374.555,6.992v32.631h-2.75V13.238l0.093-1.539l-0.699,1.539l-10.815,18.366h-1.258l-10.862-18.366
		l-0.653-1.445l0.094,1.445v26.384h-2.75V6.992h2.564l11.84,20.044l0.373,0.886l0.42-0.886l11.84-20.044H374.555z"/>
	<path class="st0" d="M401.125,15.709c-0.699-4.335-4.288-6.993-8.856-6.993c-4.802,0-8.298,2.191-8.298,6.2
		c0,3.962,4.662,5.081,9.229,6.339c4.476,1.305,11.002,2.983,11.002,9.696c0,5.361-4.662,9.323-11.701,9.323
		c-7.039,0-11.327-4.196-12.026-9.557l2.563-0.699c0.373,4.242,3.776,7.785,9.557,7.785c5.36,0,8.81-2.89,8.81-6.806
		c0-5.268-6.479-6.573-10.908-7.878c-3.916-1.119-9.323-2.657-9.323-8.158c0-5.081,4.708-8.624,11.141-8.624
		c5.827,0,10.395,3.403,11.374,8.67L401.125,15.709z"/>
</g>
</svg>