<!-- Generator: Adobe Illustrator 19.0.0, SVG Export Plug-In  -->
<svg version="1.1"
	 xmlns="http://www.w3.org/2000/svg" xmlns:xlink="http://www.w3.org/1999/xlink" xmlns:a="http://ns.adobe.com/AdobeSVGViewerExtensions/3.0/"
	 x="0px" y="0px" width="15.035px" height="18.356px" viewBox="0 0 15.035 18.356"
	 style="enable-background:new 0 0 15.035 18.356;" xml:space="preserve">
<style type="text/css">
	.st0{fill:#FFFFFF;}
</style>
<defs>
</defs>
<g id="XMLID_15_">
	<path id="XMLID_19_" class="st0" d="M7.518,0.94c3.627,0,6.578,2.991,6.578,6.667c0,1.791-0.673,3.463-2.059,5.111
		c-1.665,1.981-3.572,3.646-4.509,4.424c-1.047-0.887-3.256-2.824-4.512-4.404C1.989,11.446,0.94,9.827,0.94,7.606
		C0.94,3.93,3.891,0.94,7.518,0.94 M7.518,0C3.366,0,0,3.405,0,7.606c0,2.377,1.052,4.172,2.279,5.716
		c1.762,2.217,5.238,5.034,5.238,5.034s2.839-2.18,5.238-5.034c1.269-1.509,2.279-3.367,2.279-5.716C15.035,3.405,11.669,0,7.518,0
		L7.518,0z"/>
	<path id="XMLID_16_" class="st0" d="M7.518,5.773c1.052,0,1.909,0.856,1.909,1.909S8.57,9.59,7.518,9.59S5.609,8.734,5.609,7.682
		S6.465,5.773,7.518,5.773 M7.518,4.834c-1.573,0-2.848,1.275-2.848,2.848s1.275,2.848,2.848,2.848s2.848-1.275,2.848-2.848
		S9.091,4.834,7.518,4.834L7.518,4.834z"/>
</g>
</svg>