<!-- Generator: Adobe Illustrator 19.0.0, SVG Export Plug-In  -->
<svg version="1.1"
	 xmlns="http://www.w3.org/2000/svg" xmlns:xlink="http://www.w3.org/1999/xlink" xmlns:a="http://ns.adobe.com/AdobeSVGViewerExtensions/3.0/"
	 x="0px" y="0px" width="162.168px" height="104.975px" viewBox="0 0 162.168 104.975"
	 style="enable-background:new 0 0 162.168 104.975;" xml:space="preserve">
<style type="text/css">
	.st0{fill:#FFFFFF;}
</style>
<defs>
</defs>
<g id="XMLID_15_">
	<g id="XMLID_50_">
		<g id="XMLID_212_">
			<g id="XMLID_371_">
				<rect id="XMLID_372_" x="91.119" class="st0" width="5.966" height="0.51"/>
			</g>
			<g id="XMLID_369_">
				<rect id="XMLID_370_" x="89.345" y="1.264" class="st0" width="10.494" height="0.51"/>
			</g>
			<g id="XMLID_367_">
				<rect id="XMLID_368_" x="87.685" y="2.528" class="st0" width="14.776" height="0.51"/>
			</g>
			<g id="XMLID_365_">
				<rect id="XMLID_366_" x="86.476" y="3.792" class="st0" width="19.004" height="0.51"/>
			</g>
			<g id="XMLID_363_">
				<rect id="XMLID_364_" x="85.866" y="5.056" class="st0" width="24.383" height="0.51"/>
			</g>
			<g id="XMLID_361_">
				<rect id="XMLID_362_" x="84.93" y="6.32" class="st0" width="21.315" height="0.51"/>
			</g>
			<g id="XMLID_359_">
				<rect id="XMLID_360_" x="84.415" y="7.585" class="st0" width="20.176" height="0.51"/>
			</g>
			<g id="XMLID_357_">
				<rect id="XMLID_358_" x="83.953" y="8.849" class="st0" width="19.431" height="0.51"/>
			</g>
			<g id="XMLID_355_">
				<rect id="XMLID_356_" x="83.497" y="10.113" class="st0" width="18.687" height="0.51"/>
			</g>
			<g id="XMLID_353_">
				<rect id="XMLID_354_" x="83.21" y="11.377" class="st0" width="18.017" height="0.51"/>
			</g>
			<g id="XMLID_351_">
				<rect id="XMLID_352_" x="82.976" y="12.641" class="st0" width="17.635" height="0.51"/>
			</g>
			<g id="XMLID_349_">
				<rect id="XMLID_350_" x="82.827" y="13.905" class="st0" width="16.912" height="0.51"/>
			</g>
			<g id="XMLID_347_">
				<rect id="XMLID_348_" x="82.544" y="15.169" class="st0" width="16.834" height="0.51"/>
			</g>
			<g id="XMLID_345_">
				<rect id="XMLID_346_" x="82.217" y="16.433" class="st0" width="16.701" height="0.51"/>
			</g>
			<g id="XMLID_343_">
				<rect id="XMLID_344_" x="81.741" y="17.697" class="st0" width="16.956" height="0.51"/>
			</g>
			<g id="XMLID_341_">
				<rect id="XMLID_342_" x="81.007" y="18.961" class="st0" width="17.689" height="0.51"/>
			</g>
			<g id="XMLID_339_">
				<rect id="XMLID_340_" x="79.546" y="20.225" class="st0" width="19.151" height="0.51"/>
			</g>
			<g id="XMLID_337_">
				<rect id="XMLID_338_" x="77.731" y="21.49" class="st0" width="21.157" height="0.51"/>
			</g>
			<g id="XMLID_335_">
				<rect id="XMLID_336_" x="76.151" y="22.754" class="st0" width="22.954" height="0.51"/>
			</g>
			<g id="XMLID_333_">
				<rect id="XMLID_334_" x="74.7" y="24.018" class="st0" width="24.569" height="0.51"/>
			</g>
			<g id="XMLID_331_">
				<rect id="XMLID_332_" x="73.274" y="25.282" class="st0" width="26.114" height="0.51"/>
			</g>
			<g id="XMLID_329_">
				<rect id="XMLID_330_" x="71.75" y="26.546" class="st0" width="27.708" height="0.51"/>
			</g>
			<g id="XMLID_327_">
				<rect id="XMLID_328_" x="70.188" y="27.81" class="st0" width="29.27" height="0.51"/>
			</g>
			<g id="XMLID_325_">
				<rect id="XMLID_326_" x="68.592" y="29.074" class="st0" width="30.789" height="0.51"/>
			</g>
			<g id="XMLID_323_">
				<rect id="XMLID_324_" x="67.323" y="30.338" class="st0" width="31.919" height="0.51"/>
			</g>
			<g id="XMLID_321_">
				<rect id="XMLID_322_" x="65.679" y="31.602" class="st0" width="33.351" height="0.51"/>
			</g>
			<g id="XMLID_319_">
				<rect id="XMLID_320_" x="64.267" y="32.866" class="st0" width="34.499" height="0.51"/>
			</g>
			<g id="XMLID_317_">
				<rect id="XMLID_318_" x="62.645" y="34.13" class="st0" width="35.786" height="0.51"/>
			</g>
			<g id="XMLID_315_">
				<rect id="XMLID_316_" x="61.123" y="35.395" class="st0" width="37.004" height="0.51"/>
			</g>
			<g id="XMLID_313_">
				<rect id="XMLID_314_" x="59.737" y="36.659" class="st0" width="38.055" height="0.51"/>
			</g>
			<g id="XMLID_311_">
				<rect id="XMLID_312_" x="58.119" y="37.923" class="st0" width="39.199" height="0.51"/>
			</g>
			<g id="XMLID_309_">
				<rect id="XMLID_310_" x="56.161" y="39.187" class="st0" width="40.476" height="0.51"/>
			</g>
			<g id="XMLID_307_">
				<rect id="XMLID_308_" x="54.349" y="40.451" class="st0" width="41.381" height="0.51"/>
			</g>
			<g id="XMLID_305_">
				<rect id="XMLID_306_" x="52.695" y="41.715" class="st0" width="42.019" height="0.51"/>
			</g>
			<g id="XMLID_303_">
				<rect id="XMLID_304_" x="51.139" y="42.979" class="st0" width="42.409" height="0.51"/>
			</g>
			<g id="XMLID_301_">
				<rect id="XMLID_302_" x="49.66" y="44.243" class="st0" width="42.75" height="0.51"/>
			</g>
			<g id="XMLID_299_">
				<rect id="XMLID_300_" x="47.891" y="45.507" class="st0" width="42.85" height="0.51"/>
			</g>
			<g id="XMLID_297_">
				<rect id="XMLID_298_" x="46.126" y="46.771" class="st0" width="42.6" height="0.51"/>
			</g>
			<g id="XMLID_295_">
				<rect id="XMLID_296_" x="44.499" y="48.035" class="st0" width="42.548" height="0.51"/>
			</g>
			<g id="XMLID_293_">
				<rect id="XMLID_294_" x="43.143" y="49.299" class="st0" width="42.548" height="0.51"/>
			</g>
			<g id="XMLID_291_">
				<rect id="XMLID_292_" x="41.731" y="50.564" class="st0" width="41.935" height="0.51"/>
			</g>
			<g id="XMLID_289_">
				<rect id="XMLID_290_" x="40.422" y="51.828" class="st0" width="41.255" height="0.51"/>
			</g>
			<g id="XMLID_287_">
				<rect id="XMLID_288_" x="38.44" y="53.092" class="st0" width="40.458" height="0.51"/>
			</g>
			<g id="XMLID_282_">
				<g id="XMLID_285_">
					<rect id="XMLID_286_" x="71.976" y="58.148" class="st0" width="3.285" height="0.51"/>
				</g>
				<g id="XMLID_283_">
					<rect id="XMLID_284_" x="28.96" y="58.148" class="st0" width="6.925" height="0.51"/>
				</g>
			</g>
			<g id="XMLID_277_">
				<g id="XMLID_280_">
					<rect id="XMLID_281_" x="71.887" y="59.412" class="st0" width="2.5" height="0.51"/>
				</g>
				<g id="XMLID_278_">
					<rect id="XMLID_279_" x="26.726" y="59.412" class="st0" width="6.925" height="0.51"/>
				</g>
			</g>
			<g id="XMLID_272_">
				<g id="XMLID_275_">
					<rect id="XMLID_276_" x="72.09" y="60.676" class="st0" width="1.972" height="0.51"/>
				</g>
				<g id="XMLID_273_">
					<rect id="XMLID_274_" x="24.403" y="60.676" class="st0" width="6.925" height="0.51"/>
				</g>
			</g>
			<g id="XMLID_267_">
				<g id="XMLID_270_">
					<rect id="XMLID_271_" x="72.855" y="61.94" class="st0" width="1.956" height="0.51"/>
				</g>
				<g id="XMLID_268_">
					<rect id="XMLID_269_" x="21.513" y="61.94" class="st0" width="6.662" height="0.51"/>
				</g>
			</g>
			<g id="XMLID_262_">
				<g id="XMLID_265_">
					<rect id="XMLID_266_" x="73.459" y="63.204" class="st0" width="1.874" height="0.51"/>
				</g>
				<g id="XMLID_263_">
					<rect id="XMLID_264_" x="19.288" y="63.204" class="st0" width="6.633" height="0.51"/>
				</g>
			</g>
			<g id="XMLID_257_">
				<g id="XMLID_260_">
					<rect id="XMLID_261_" x="73.95" y="64.469" class="st0" width="1.949" height="0.51"/>
				</g>
				<g id="XMLID_258_">
					<rect id="XMLID_259_" x="18.041" y="64.469" class="st0" width="5.769" height="0.51"/>
				</g>
			</g>
			<g id="XMLID_252_">
				<g id="XMLID_255_">
					<rect id="XMLID_256_" x="74.709" y="65.733" class="st0" width="1.823" height="0.51"/>
				</g>
				<g id="XMLID_253_">
					<rect id="XMLID_254_" x="17.814" y="65.733" class="st0" width="3.384" height="0.51"/>
				</g>
			</g>
			<g id="XMLID_247_">
				<g id="XMLID_250_">
					<rect id="XMLID_251_" x="75.333" y="66.997" class="st0" width="1.92" height="0.51"/>
				</g>
				<g id="XMLID_248_">
					<rect id="XMLID_249_" x="17.814" y="66.997" class="st0" width="1.049" height="0.51"/>
				</g>
			</g>
			<g id="XMLID_245_">
				<rect id="XMLID_246_" x="75.899" y="68.261" class="st0" width="1.92" height="0.51"/>
			</g>
			<g id="XMLID_243_">
				<rect id="XMLID_244_" x="76.58" y="69.525" class="st0" width="1.92" height="0.51"/>
			</g>
			<g id="XMLID_241_">
				<rect id="XMLID_242_" x="77.164" y="70.789" class="st0" width="1.92" height="0.51"/>
			</g>
			<g id="XMLID_239_">
				<rect id="XMLID_240_" x="77.719" y="72.053" class="st0" width="1.92" height="0.51"/>
			</g>
			<g id="XMLID_237_">
				<rect id="XMLID_238_" x="78.387" y="73.317" class="st0" width="1.92" height="0.51"/>
			</g>
			<g id="XMLID_235_">
				<rect id="XMLID_236_" x="78.972" y="74.581" class="st0" width="1.92" height="0.51"/>
			</g>
			<g id="XMLID_233_">
				<rect id="XMLID_234_" x="78.972" y="75.845" class="st0" width="2.819" height="0.51"/>
			</g>
			<g id="XMLID_230_">
				<g id="XMLID_231_">
					<rect id="XMLID_232_" x="72.568" y="77.109" class="st0" width="17.434" height="0.51"/>
				</g>
			</g>
			<g id="XMLID_225_">
				<g id="XMLID_228_">
					<rect id="XMLID_229_" x="72.536" y="56.884" class="st0" width="3.547" height="0.51"/>
				</g>
				<g id="XMLID_226_">
					<rect id="XMLID_227_" x="31.786" y="56.884" class="st0" width="6.857" height="0.51"/>
				</g>
			</g>
			<g id="XMLID_220_">
				<g id="XMLID_223_">
					<rect id="XMLID_224_" x="34.242" y="55.62" class="st0" width="7.059" height="0.51"/>
				</g>
				<g id="XMLID_221_">
					<rect id="XMLID_222_" x="73.027" y="55.62" class="st0" width="3.741" height="0.51"/>
				</g>
			</g>
			<g id="XMLID_213_">
				<g id="XMLID_218_">
					<rect id="XMLID_219_" x="36.607" y="54.356" class="st0" width="15.253" height="0.51"/>
				</g>
				<g id="XMLID_216_">
					<rect id="XMLID_217_" x="64.234" y="54.356" class="st0" width="7.399" height="0.51"/>
				</g>
				<g id="XMLID_214_">
					<rect id="XMLID_215_" x="73.461" y="54.356" class="st0" width="4.167" height="0.51"/>
				</g>
			</g>
		</g>
		<g id="XMLID_51_">
			<g id="XMLID_210_">
				
					<rect id="XMLID_211_" x="91.623" y="1.512" transform="matrix(0.9927 0.1202 -0.1202 0.9927 0.903 -11.7732)" class="st0" width="12.803" height="0.17"/>
			</g>
			<g id="XMLID_208_">
				
					<rect id="XMLID_209_" x="89.824" y="3.109" transform="matrix(0.9915 0.13 -0.13 0.9915 1.2492 -12.7506)" class="st0" width="16.963" height="0.17"/>
			</g>
			<g id="XMLID_206_">
				
					<rect id="XMLID_207_" x="88.138" y="4.689" transform="matrix(0.9907 0.1359 -0.1359 0.9907 1.5625 -13.3481)" class="st0" width="20.882" height="0.17"/>
			</g>
			<g id="XMLID_204_">
				
					<rect id="XMLID_205_" x="86.897" y="6.32" transform="matrix(0.9895 0.1443 -0.1443 0.9895 1.9629 -14.2558)" class="st0" width="24.749" height="0.17"/>
			</g>
			<g id="XMLID_202_">
				
					<rect id="XMLID_203_" x="86.226" y="8.177" transform="matrix(0.9872 0.1597 -0.1597 0.9872 2.6182 -16.0456)" class="st0" width="29.765" height="0.17"/>
			</g>
			<g id="XMLID_200_">
				
					<rect id="XMLID_201_" x="85.352" y="8.905" transform="matrix(0.9902 0.1396 -0.1396 0.9902 2.2195 -13.6672)" class="st0" width="26.383" height="0.17"/>
			</g>
			<g id="XMLID_198_">
				
					<rect id="XMLID_199_" x="84.862" y="9.935" transform="matrix(0.9916 0.129 -0.129 0.9916 2.1052 -12.4688)" class="st0" width="24.924" height="0.17"/>
			</g>
			<g id="XMLID_196_">
				
					<rect id="XMLID_197_" x="84.417" y="11.022" transform="matrix(0.9928 0.1199 -0.1199 0.9928 2.0275 -11.4747)" class="st0" width="23.858" height="0.17"/>
			</g>
			<g id="XMLID_194_">
				
					<rect id="XMLID_195_" x="83.978" y="12.111" transform="matrix(0.9939 0.1101 -0.1101 0.9939 1.9231 -10.429)" class="st0" width="22.796" height="0.17"/>
			</g>
			<g id="XMLID_192_">
				
					<rect id="XMLID_193_" x="83.704" y="13.23" transform="matrix(0.9948 0.1019 -0.1019 0.9948 1.8487 -9.5688)" class="st0" width="21.808" height="0.17"/>
			</g>
			<g id="XMLID_190_">
				
					<rect id="XMLID_191_" x="83.478" y="14.394" transform="matrix(0.9954 0.0957 -0.0957 0.9954 1.8183 -8.9367)" class="st0" width="21.105" height="0.17"/>
			</g>
			<g id="XMLID_188_">
				
					<rect id="XMLID_189_" x="83.34" y="15.525" transform="matrix(0.9962 0.0874 -0.0874 0.9962 1.7219 -8.102)" class="st0" width="20.067" height="0.17"/>
			</g>
			<g id="XMLID_186_">
				
					<rect id="XMLID_187_" x="83.062" y="16.721" transform="matrix(0.9966 0.0823 -0.0823 0.9966 1.6984 -7.5888)" class="st0" width="19.665" height="0.17"/>
			</g>
			<g id="XMLID_184_">
				
					<rect id="XMLID_185_" x="82.74" y="17.905" transform="matrix(0.9971 0.0759 -0.0759 0.9971 1.6313 -6.9552)" class="st0" width="19.211" height="0.17"/>
			</g>
			<g id="XMLID_182_">
				
					<rect id="XMLID_183_" x="82.268" y="19.119" transform="matrix(0.9975 0.071 -0.071 0.9975 1.5943 -6.4685)" class="st0" width="19.141" height="0.17"/>
			</g>
			<g id="XMLID_180_">
				
					<rect id="XMLID_181_" x="81.536" y="20.362" transform="matrix(0.9977 0.0673 -0.0673 0.9977 1.5836 -6.1003)" class="st0" width="19.546" height="0.17"/>
			</g>
			<g id="XMLID_178_">
				
					<rect id="XMLID_179_" x="80.077" y="21.605" transform="matrix(0.9981 0.0616 -0.0616 0.9981 1.5072 -5.5265)" class="st0" width="20.677" height="0.17"/>
			</g>
			<g id="XMLID_176_">
				
					<rect id="XMLID_177_" x="78.263" y="22.872" transform="matrix(0.9984 0.0573 -0.0573 0.9984 1.4615 -5.0842)" class="st0" width="22.35" height="0.17"/>
			</g>
			<g id="XMLID_174_">
				
					<rect id="XMLID_175_" x="76.684" y="24.143" transform="matrix(0.9985 0.0543 -0.0543 0.9985 1.4462 -4.7745)" class="st0" width="23.812" height="0.17"/>
			</g>
			<g id="XMLID_172_">
				
					<rect id="XMLID_173_" x="75.234" y="25.407" transform="matrix(0.9987 0.0515 -0.0515 0.9987 1.43 -4.4888)" class="st0" width="25.095" height="0.17"/>
			</g>
			<g id="XMLID_170_">
				
					<rect id="XMLID_171_" x="73.81" y="26.665" transform="matrix(0.9988 0.0487 -0.0487 0.9988 1.4056 -4.2024)" class="st0" width="26.308" height="0.17"/>
			</g>
			<g id="XMLID_168_">
				
					<rect id="XMLID_169_" x="72.287" y="27.917" transform="matrix(0.999 0.0456 -0.0456 0.999 1.3653 -3.8928)" class="st0" width="27.572" height="0.17"/>
			</g>
			<g id="XMLID_166_">
				
					<rect id="XMLID_167_" x="70.726" y="29.16" transform="matrix(0.9991 0.0421 -0.0421 0.9991 1.308 -3.5613)" class="st0" width="28.806" height="0.17"/>
			</g>
			<g id="XMLID_164_">
				
					<rect id="XMLID_165_" x="69.132" y="30.393" transform="matrix(0.9993 0.0384 -0.0384 0.9993 1.2319 -3.2071)" class="st0" width="29.999" height="0.17"/>
			</g>
			<g id="XMLID_162_">
				
					<rect id="XMLID_163_" x="67.864" y="31.618" transform="matrix(0.9994 0.0348 -0.0348 0.9994 1.1551 -2.8818)" class="st0" width="30.806" height="0.17"/>
			</g>
			<g id="XMLID_160_">
				
					<rect id="XMLID_161_" x="66.223" y="32.833" transform="matrix(0.9995 0.0306 -0.0306 0.9995 1.0455 -2.4986)" class="st0" width="31.916" height="0.17"/>
			</g>
			<g id="XMLID_158_">
				
					<rect id="XMLID_159_" x="64.812" y="34.042" transform="matrix(0.9997 0.0264 -0.0264 0.9997 0.9306 -2.1343)" class="st0" width="32.743" height="0.17"/>
			</g>
			<g id="XMLID_156_">
				
					<rect id="XMLID_157_" x="63.191" y="35.242" transform="matrix(0.9998 0.0219 -0.0219 0.9998 0.7914 -1.7414)" class="st0" width="33.714" height="0.17"/>
			</g>
			<g id="XMLID_154_">
				
					<rect id="XMLID_155_" x="61.671" y="36.445" transform="matrix(0.9998 0.0178 -0.0178 0.9998 0.6628 -1.4001)" class="st0" width="34.614" height="0.17"/>
			</g>
			<g id="XMLID_152_">
				
					<rect id="XMLID_153_" x="60.286" y="37.645" transform="matrix(0.9999 0.0138 -0.0138 0.9999 0.5279 -1.0718)" class="st0" width="35.349" height="0.17"/>
			</g>
			<g id="XMLID_150_">
				
					<rect id="XMLID_151_" x="58.669" y="38.827" transform="matrix(1 0.0089 -0.0089 1 0.3506 -0.684)" class="st0" width="36.182" height="0.17"/>
			</g>
			<g id="XMLID_148_">
				
					<rect id="XMLID_149_" x="56.711" y="39.982" transform="matrix(1 0.0028 -0.0028 1 0.1139 -0.2132)" class="st0" width="37.155" height="0.17"/>
			</g>
			<g id="XMLID_146_">
				<rect id="XMLID_147_" x="54.9" y="41.108" class="st0" width="37.766" height="0.17"/>
			</g>
			<g id="XMLID_144_">
				<rect id="XMLID_145_" x="53.245" y="42.221" class="st0" width="38.116" height="0.17"/>
			</g>
			<g id="XMLID_142_">
				<rect id="XMLID_143_" x="51.686" y="43.313" class="st0" width="38.225" height="0.17"/>
			</g>
			<g id="XMLID_140_">
				<rect id="XMLID_141_" x="50.202" y="44.41" class="st0" width="38.288" height="0.17"/>
			</g>
			<g id="XMLID_138_">
				
					<rect id="XMLID_139_" x="67.408" y="26.455" transform="matrix(0.043 0.9991 -0.9991 0.043 110.0735 -23.8633)" class="st0" width="0.17" height="38.136"/>
			</g>
			<g id="XMLID_136_">
				
					<rect id="XMLID_137_" x="65.389" y="27.678" transform="matrix(0.0586 0.9983 -0.9983 0.0586 108.0639 -21.5806)" class="st0" width="0.17" height="37.658"/>
			</g>
			<g id="XMLID_134_">
				
					<rect id="XMLID_135_" x="63.601" y="28.85" transform="matrix(0.0703 0.9975 -0.9975 0.0703 106.6224 -19.3387)" class="st0" width="0.17" height="37.368"/>
			</g>
			<g id="XMLID_132_">
				
					<rect id="XMLID_133_" x="62.105" y="30.042" transform="matrix(0.082 0.9966 -0.9966 0.082 105.5294 -17.3641)" class="st0" width="0.17" height="37.12"/>
			</g>
			<g id="XMLID_130_">
				
					<rect id="XMLID_131_" x="60.259" y="31.432" transform="matrix(0.0996 0.995 -0.995 0.0996 103.6717 -15.3981)" class="st0" width="0.17" height="36.305"/>
			</g>
			<g id="XMLID_128_">
				
					<rect id="XMLID_129_" x="58.481" y="32.856" transform="matrix(0.1172 0.9931 -0.9931 0.1172 101.9261 -13.5168)" class="st0" width="0.17" height="35.432"/>
			</g>
			<g id="XMLID_126_">
				
					<rect id="XMLID_127_" x="55.985" y="34.202" transform="matrix(0.1426 0.9898 -0.9898 0.1426 99.0064 -11.3767)" class="st0" width="0.17" height="34.511"/>
			</g>
			<g id="XMLID_121_">
				<g id="XMLID_124_">
					<rect id="XMLID_125_" x="72.527" y="58.891" class="st0" width="3.285" height="0.17"/>
				</g>
				<g id="XMLID_122_">
					<rect id="XMLID_123_" x="29.511" y="58.891" class="st0" width="6.925" height="0.17"/>
				</g>
			</g>
			<g id="XMLID_116_">
				<g id="XMLID_119_">
					<rect id="XMLID_120_" x="72.438" y="60.155" class="st0" width="2.5" height="0.17"/>
				</g>
				<g id="XMLID_117_">
					<rect id="XMLID_118_" x="27.277" y="60.155" class="st0" width="6.925" height="0.17"/>
				</g>
			</g>
			<g id="XMLID_111_">
				<g id="XMLID_114_">
					<rect id="XMLID_115_" x="72.641" y="61.419" class="st0" width="1.972" height="0.17"/>
				</g>
				<g id="XMLID_112_">
					<rect id="XMLID_113_" x="24.954" y="61.419" class="st0" width="6.925" height="0.17"/>
				</g>
			</g>
			<g id="XMLID_106_">
				<g id="XMLID_109_">
					<rect id="XMLID_110_" x="73.406" y="62.683" class="st0" width="1.956" height="0.17"/>
				</g>
				<g id="XMLID_107_">
					<rect id="XMLID_108_" x="22.064" y="62.683" class="st0" width="6.662" height="0.17"/>
				</g>
			</g>
			<g id="XMLID_101_">
				<g id="XMLID_104_">
					<rect id="XMLID_105_" x="74.01" y="63.947" class="st0" width="1.874" height="0.17"/>
				</g>
				<g id="XMLID_102_">
					<rect id="XMLID_103_" x="19.839" y="63.947" class="st0" width="6.633" height="0.17"/>
				</g>
			</g>
			<g id="XMLID_96_">
				<g id="XMLID_99_">
					<rect id="XMLID_100_" x="74.501" y="65.211" class="st0" width="1.949" height="0.17"/>
				</g>
				<g id="XMLID_97_">
					<rect id="XMLID_98_" x="18.592" y="65.211" class="st0" width="5.769" height="0.17"/>
				</g>
			</g>
			<g id="XMLID_91_">
				<g id="XMLID_94_">
					<rect id="XMLID_95_" x="75.26" y="66.475" class="st0" width="1.823" height="0.17"/>
				</g>
				<g id="XMLID_92_">
					<rect id="XMLID_93_" x="18.365" y="66.475" class="st0" width="3.384" height="0.17"/>
				</g>
			</g>
			<g id="XMLID_86_">
				<g id="XMLID_89_">
					<rect id="XMLID_90_" x="75.883" y="67.739" class="st0" width="1.92" height="0.17"/>
				</g>
				<g id="XMLID_87_">
					<rect id="XMLID_88_" x="18.365" y="67.739" class="st0" width="1.049" height="0.17"/>
				</g>
			</g>
			<g id="XMLID_84_">
				<rect id="XMLID_85_" x="76.449" y="69.004" class="st0" width="1.92" height="0.17"/>
			</g>
			<g id="XMLID_82_">
				<rect id="XMLID_83_" x="77.13" y="70.268" class="st0" width="1.92" height="0.17"/>
			</g>
			<g id="XMLID_80_">
				<rect id="XMLID_81_" x="77.715" y="71.532" class="st0" width="1.92" height="0.17"/>
			</g>
			<g id="XMLID_78_">
				<rect id="XMLID_79_" x="78.27" y="72.796" class="st0" width="1.92" height="0.17"/>
			</g>
			<g id="XMLID_76_">
				<rect id="XMLID_77_" x="78.938" y="74.06" class="st0" width="1.92" height="0.17"/>
			</g>
			<g id="XMLID_74_">
				<rect id="XMLID_75_" x="79.523" y="75.324" class="st0" width="1.92" height="0.17"/>
			</g>
			<g id="XMLID_72_">
				<rect id="XMLID_73_" x="79.523" y="76.588" class="st0" width="2.819" height="0.17"/>
			</g>
			<g id="XMLID_69_">
				<g id="XMLID_70_">
					<rect id="XMLID_71_" x="73.119" y="77.852" class="st0" width="17.434" height="0.17"/>
				</g>
			</g>
			<g id="XMLID_64_">
				<g id="XMLID_67_">
					<rect id="XMLID_68_" x="73.087" y="57.627" class="st0" width="3.547" height="0.17"/>
				</g>
				<g id="XMLID_65_">
					<rect id="XMLID_66_" x="32.337" y="57.627" class="st0" width="6.857" height="0.17"/>
				</g>
			</g>
			<g id="XMLID_59_">
				<g id="XMLID_62_">
					<rect id="XMLID_63_" x="34.792" y="56.363" class="st0" width="7.059" height="0.17"/>
				</g>
				<g id="XMLID_60_">
					<rect id="XMLID_61_" x="73.577" y="56.363" class="st0" width="3.741" height="0.17"/>
				</g>
			</g>
			<g id="XMLID_52_">
				<g id="XMLID_57_">
					<rect id="XMLID_58_" x="37.158" y="55.099" class="st0" width="15.253" height="0.17"/>
				</g>
				<g id="XMLID_55_">
					<rect id="XMLID_56_" x="64.784" y="55.099" class="st0" width="7.399" height="0.17"/>
				</g>
				<g id="XMLID_53_">
					<rect id="XMLID_54_" x="74.012" y="55.099" class="st0" width="4.167" height="0.17"/>
				</g>
			</g>
		</g>
	</g>
	<g id="XMLID_20_">
		<path id="XMLID_48_" class="st0" d="M12.388,88.672c-0.631-0.565-1.279-0.978-1.943-1.24s-1.375-0.394-2.133-0.394
			c-1.555,0-2.794,0.465-3.717,1.395c-0.924,0.93-1.385,2.179-1.385,3.747c0,1.535,0.429,2.753,1.286,3.652
			c0.857,0.901,2.026,1.351,3.508,1.351c0.844,0,1.628-0.141,2.352-0.423c0.724-0.282,1.395-0.706,2.013-1.271l-0.02,3.199
			c-0.664,0.392-1.36,0.684-2.088,0.877c-0.728,0.193-1.493,0.289-2.297,0.289c-2.325,0-4.234-0.722-5.726-2.168
			C0.746,96.241,0,94.405,0,92.18c0-2.219,0.747-4.05,2.242-5.491s3.422-2.163,5.78-2.163c0.791,0,1.555,0.083,2.292,0.249
			c0.737,0.166,1.465,0.422,2.183,0.767L12.388,88.672z"/>
		<path id="XMLID_45_" class="st0" d="M13.554,99.465l5.551-14.59h3.568l5.631,14.59h-3.548l-1.186-3.099h-5.651l-1.017,3.099
			H13.554z M22.842,93.914L21.208,89.2c-0.047-0.14-0.106-0.379-0.179-0.718c-0.073-0.339-0.149-0.754-0.229-1.246
			c-0.086,0.472-0.169,0.896-0.249,1.271s-0.14,0.626-0.179,0.752l-1.575,4.654H22.842z"/>
		<path id="XMLID_43_" class="st0" d="M31.722,99.465v-6.657l-4.943-7.933h3.658l2.163,3.996c0.106,0.199,0.216,0.452,0.329,0.757
			s0.229,0.658,0.349,1.056c0.093-0.339,0.198-0.658,0.314-0.957c0.116-0.299,0.247-0.591,0.394-0.877l2.148-3.976h3.653
			l-4.943,7.933v6.657H31.722z"/>
		<path id="XMLID_41_" class="st0" d="M41.09,99.465v-14.59h8.591v2.631h-5.471v3h5.471v2.651h-5.471v3.658h5.471v2.651H41.09z"/>
		<path id="XMLID_39_" class="st0" d="M58.192,87.526v11.939h-3.129V87.526h-3.568v-2.651H61.76v2.651H58.192z"/>
		<path id="XMLID_36_" class="st0" d="M60.952,99.465l5.551-14.59h3.568l5.631,14.59h-3.548l-1.186-3.099h-5.651l-1.017,3.099
			H60.952z M70.241,93.914L68.606,89.2c-0.047-0.14-0.106-0.379-0.179-0.718s-0.149-0.754-0.229-1.246
			c-0.086,0.472-0.169,0.896-0.249,1.271s-0.14,0.626-0.179,0.752l-1.575,4.654H70.241z"/>
		<path id="XMLID_34_" class="st0" d="M77.237,99.465v-14.59h3.239l6.458,8.491c0.186,0.239,0.39,0.577,0.613,1.011
			c0.223,0.436,0.453,0.949,0.693,1.54c-0.073-0.432-0.126-0.86-0.159-1.286c-0.033-0.425-0.05-0.957-0.05-1.595v-8.162h2.98v14.59
			h-3.06l-6.637-8.651c-0.186-0.239-0.389-0.576-0.608-1.011c-0.219-0.435-0.452-0.955-0.698-1.56
			c0.073,0.419,0.126,0.842,0.159,1.27c0.033,0.429,0.05,0.969,0.05,1.62v8.332H77.237z"/>
		<path id="XMLID_31_" class="st0" d="M109.198,92.2c0,1.043-0.194,2.03-0.583,2.96c-0.389,0.93-0.948,1.747-1.679,2.452
			c-0.757,0.724-1.611,1.279-2.561,1.664s-1.933,0.578-2.95,0.578c-0.89,0-1.762-0.151-2.616-0.454
			c-0.854-0.302-1.636-0.735-2.347-1.3c-0.917-0.731-1.619-1.605-2.108-2.621c-0.488-1.017-0.733-2.109-0.733-3.279
			c0-1.05,0.193-2.034,0.578-2.955c0.385-0.92,0.95-1.739,1.694-2.457c0.731-0.711,1.58-1.262,2.546-1.654
			c0.967-0.392,1.962-0.588,2.985-0.588c1.017,0,2.005,0.196,2.965,0.588c0.96,0.392,1.809,0.943,2.546,1.654
			c0.737,0.718,1.299,1.538,1.684,2.462C109.005,90.173,109.198,91.157,109.198,92.2z M101.425,97.073
			c1.322,0,2.413-0.464,3.274-1.39c0.86-0.928,1.291-2.088,1.291-3.483c0-1.382-0.435-2.545-1.306-3.488
			c-0.87-0.943-1.957-1.415-3.259-1.415c-1.322,0-2.418,0.47-3.289,1.411S96.83,90.811,96.83,92.2c0,1.409,0.429,2.573,1.286,3.493
			C98.973,96.613,100.076,97.073,101.425,97.073z"/>
		<path id="XMLID_29_" class="st0" d="M111.949,99.465v-14.59h7.694v1.585h-5.96v4.186h5.96v1.615h-5.96v7.205H111.949z"/>
		<path id="XMLID_27_" class="st0" d="M122.313,99.465v-14.59h1.734v14.59H122.313z"/>
		<path id="XMLID_25_" class="st0" d="M127.576,99.465v-14.59h1.734v12.936h5.511v1.654H127.576z"/>
		<path id="XMLID_23_" class="st0" d="M143.681,100.033l-4.535-10.484l-1.834,9.916h-1.694l2.96-15.168l5.103,12.069l5.103-12.069
			l2.96,15.168h-1.694l-1.854-9.916L143.681,100.033z"/>
		<path id="XMLID_21_" class="st0" d="M159.298,91.363c0.95,0.405,1.666,0.943,2.148,1.614c0.482,0.671,0.723,1.465,0.723,2.382
			c0,1.342-0.427,2.424-1.281,3.244c-0.854,0.821-1.985,1.231-3.393,1.231c-1.149,0-2.113-0.294-2.89-0.882
			c-0.777-0.589-1.302-1.424-1.575-2.507l1.575-0.777c0.213,0.884,0.563,1.553,1.051,2.008c0.488,0.455,1.101,0.682,1.839,0.682
			c0.87,0,1.575-0.25,2.113-0.753c0.538-0.501,0.807-1.154,0.807-1.958c0-0.651-0.188-1.217-0.563-1.699
			c-0.375-0.482-0.942-0.889-1.699-1.221l-1.774-0.757c-0.97-0.405-1.693-0.927-2.168-1.565c-0.475-0.638-0.713-1.402-0.713-2.292
			c0-1.036,0.385-1.894,1.156-2.571c0.771-0.678,1.754-1.017,2.95-1.017c0.877,0,1.636,0.186,2.277,0.558
			c0.641,0.372,1.141,0.92,1.5,1.644l-1.435,0.917c-0.326-0.565-0.691-0.985-1.096-1.261c-0.405-0.275-0.864-0.413-1.375-0.413
			c-0.651,0-1.184,0.199-1.6,0.598s-0.623,0.907-0.623,1.525c0,0.518,0.159,0.967,0.478,1.345s0.814,0.714,1.485,1.007
			L159.298,91.363z"/>
	</g>
	<g id="XMLID_18_">
		<rect id="XMLID_19_" x="1.454" y="79.121" class="st0" width="159.485" height="1.361"/>
	</g>
	<g id="XMLID_16_">
		<rect id="XMLID_17_" x="1.454" y="103.614" class="st0" width="159.485" height="1.361"/>
	</g>
</g>
</svg>